<?xml version="1.0" encoding="UTF-8"?><svg id="Capa_2" xmlns="http://www.w3.org/2000/svg" viewBox="0 0 876.3 499.85"><defs><style>.cls-1{fill:#fff;}.cls-2{fill:#111;}.cls-3{fill:#5757f7;}.cls-4{isolation:isolate;}</style></defs><g id="Capa_1-2"><g id="Capa_2-2"><g id="Capa_1-2"><rect class="cls-1" y="300.25" width="560" height="140"/><rect class="cls-3" x="36.3" y="429.85" width="840" height="70"/><g class="cls-4"><path class="cls-1" d="M72.69,477.18v-23.12h2.78v20.7h10.96v2.42h-13.75Z"/><path class="cls-1" d="M104.99,477.18c-2.05,0-2.85-1.19-3.05-2.78h-.17c-.73,1.95-2.35,3.18-5.13,3.18-3.58,0-5.86-1.99-5.86-5.2s2.22-4.97,7.35-4.97h3.64v-1.69c0-2.48-1.49-3.78-4.07-3.78-2.29,0-3.68,.96-4.57,2.52l-1.79-1.33c.86-1.79,3.05-3.45,6.53-3.45,4.01,0,6.56,2.15,6.56,5.76v9.41h2.39v2.32h-1.82Zm-3.21-4.97v-2.82h-3.64c-3.15,0-4.57,.93-4.57,2.58v.7c0,1.75,1.36,2.68,3.54,2.68,2.72,0,4.67-1.39,4.67-3.15Z"/><path class="cls-1" d="M111.61,452.67h2.65v10.2h.13c1.09-2.09,2.88-3.18,5.27-3.18,4.17,0,6.69,3.35,6.69,8.94s-2.52,8.94-6.69,8.94c-2.39,0-4.17-1.09-5.27-3.18h-.13v2.78h-2.65v-24.51Zm11.89,17.42v-2.92c0-3.08-1.79-5.13-4.87-5.13-2.35,0-4.37,1.23-4.37,3.51v6.16c0,2.29,2.02,3.51,4.37,3.51,3.08,0,4.87-2.05,4.87-5.13Z"/><path class="cls-1" d="M130.53,468.63c0-5.43,2.95-8.94,7.75-8.94s7.75,3.51,7.75,8.94-2.95,8.94-7.75,8.94-7.75-3.51-7.75-8.94Zm12.69,1.23v-2.45c0-3.68-1.99-5.43-4.94-5.43s-4.94,1.76-4.94,5.43v2.45c0,3.68,1.99,5.43,4.94,5.43s4.94-1.75,4.94-5.43Z"/><path class="cls-1" d="M150.77,474.93h5v-12.59h-5v-2.25h7.65v4.31h.17c.66-2.25,2.19-4.31,5.76-4.31h2.39v2.65h-3.21c-3.35,0-5.1,2.15-5.1,4.8v7.39h6.63v2.25h-14.28v-2.25Z"/><path class="cls-1" d="M184.5,477.18c-2.05,0-2.85-1.19-3.05-2.78h-.17c-.73,1.95-2.35,3.18-5.13,3.18-3.58,0-5.86-1.99-5.86-5.2s2.22-4.97,7.35-4.97h3.64v-1.69c0-2.48-1.49-3.78-4.07-3.78-2.29,0-3.68,.96-4.57,2.52l-1.79-1.33c.86-1.79,3.05-3.45,6.53-3.45,4.01,0,6.56,2.15,6.56,5.76v9.41h2.39v2.32h-1.82Zm-3.21-4.97v-2.82h-3.64c-3.15,0-4.57,.93-4.57,2.58v.7c0,1.75,1.36,2.68,3.54,2.68,2.72,0,4.67-1.39,4.67-3.15Z"/><path class="cls-1" d="M198.74,477.18c-2.58,0-3.78-1.62-3.78-3.91v-10.93h-5.7v-2.25h4.24c1.13,0,1.56-.4,1.56-1.56v-4.47h2.55v6.03h7.78v2.25h-7.78v12.59h7.78v2.25h-6.66Z"/><path class="cls-1" d="M210.04,468.63c0-5.43,2.95-8.94,7.75-8.94s7.75,3.51,7.75,8.94-2.95,8.94-7.75,8.94-7.75-3.51-7.75-8.94Zm12.69,1.23v-2.45c0-3.68-1.99-5.43-4.94-5.43s-4.94,1.76-4.94,5.43v2.45c0,3.68,1.99,5.43,4.94,5.43s4.94-1.75,4.94-5.43Z"/><path class="cls-1" d="M230.28,474.93h5v-12.59h-5v-2.25h7.65v4.31h.17c.66-2.25,2.19-4.31,5.76-4.31h2.39v2.65h-3.21c-3.35,0-5.1,2.15-5.1,4.8v7.39h6.63v2.25h-14.28v-2.25Z"/><path class="cls-1" d="M251.12,474.93h6.16v-12.59h-6.16v-2.25h8.81v14.84h5.76v2.25h-14.58v-2.25Zm5.4-20.31v-.53c0-.96,.56-1.69,2.09-1.69s2.09,.73,2.09,1.69v.53c0,.96-.56,1.69-2.09,1.69s-2.09-.73-2.09-1.69Z"/><path class="cls-1" d="M269.67,468.63c0-5.43,2.95-8.94,7.75-8.94s7.75,3.51,7.75,8.94-2.95,8.94-7.75,8.94-7.75-3.51-7.75-8.94Zm12.69,1.23v-2.45c0-3.68-1.99-5.43-4.94-5.43s-4.94,1.76-4.94,5.43v2.45c0,3.68,1.99,5.43,4.94,5.43s4.94-1.75,4.94-5.43Z"/><path class="cls-1" d="M321.32,474.4h-.13c-1.09,2.09-2.88,3.18-5.27,3.18-4.17,0-6.69-3.35-6.69-8.94s2.52-8.94,6.69-8.94c2.39,0,4.17,1.09,5.27,3.18h.13v-10.2h2.65v24.51h-2.65v-2.78Zm0-2.68v-6.16c0-2.29-2.02-3.51-4.37-3.51-3.08,0-4.87,2.05-4.87,5.13v2.92c0,3.08,1.79,5.13,4.87,5.13,2.35,0,4.37-1.23,4.37-3.51Z"/><path class="cls-1" d="M329.34,468.67c0-5.47,3.21-8.98,7.85-8.98s7.59,3.51,7.59,8.35v1.26h-12.65v.79c0,3.01,2.02,5.2,5.23,5.2,2.29,0,4.01-1.13,4.9-2.98l1.95,1.33c-1.03,2.29-3.48,3.94-6.86,3.94-4.9,0-8.02-3.51-8.02-8.91Zm2.78-1.59v.23h9.81v-.36c0-3.01-1.92-5.07-4.74-5.07s-5.07,2.22-5.07,5.2Z"/><path class="cls-1" d="M369.19,465.62c0-7.69,2.75-11.96,8.38-11.96,4.24,0,6,2.55,7.12,5.07l-2.39,1.09c-.83-2.05-1.92-3.74-4.74-3.74-3.68,0-5.43,3.01-5.43,7.65v3.78c0,4.64,1.76,7.65,5.43,7.65,2.82,0,3.91-1.69,4.74-3.74l2.39,1.09c-1.13,2.52-2.88,5.07-7.12,5.07-5.63,0-8.38-4.27-8.38-11.96Z"/><path class="cls-1" d="M389.3,474.93h5v-12.59h-5v-2.25h7.65v4.31h.17c.66-2.25,2.19-4.31,5.76-4.31h2.39v2.65h-3.21c-3.35,0-5.1,2.15-5.1,4.8v7.39h6.63v2.25h-14.28v-2.25Z"/><path class="cls-1" d="M408.85,468.67c0-5.47,3.21-8.98,7.85-8.98s7.59,3.51,7.59,8.35v1.26h-12.65v.79c0,3.01,2.02,5.2,5.23,5.2,2.29,0,4.01-1.13,4.9-2.98l1.95,1.33c-1.03,2.29-3.48,3.94-6.86,3.94-4.9,0-8.02-3.51-8.02-8.91Zm2.78-1.59v.23h9.81v-.36c0-3.01-1.92-5.07-4.74-5.07s-5.07,2.22-5.07,5.2Z"/><path class="cls-1" d="M442.91,477.18c-2.05,0-2.85-1.19-3.05-2.78h-.17c-.73,1.95-2.35,3.18-5.14,3.18-3.58,0-5.86-1.99-5.86-5.2s2.22-4.97,7.35-4.97h3.64v-1.69c0-2.48-1.49-3.78-4.08-3.78-2.29,0-3.68,.96-4.57,2.52l-1.79-1.33c.86-1.79,3.05-3.45,6.53-3.45,4.01,0,6.56,2.15,6.56,5.76v9.41h2.39v2.32h-1.82Zm-3.21-4.97v-2.82h-3.64c-3.15,0-4.57,.93-4.57,2.58v.7c0,1.75,1.36,2.68,3.54,2.68,2.72,0,4.67-1.39,4.67-3.15Z"/><path class="cls-1" d="M449.17,468.63c0-5.43,2.88-8.94,7.72-8.94,3.31,0,5.37,1.62,6.33,3.94l-2.12,1.13c-.63-1.76-2.09-2.78-4.21-2.78-3.11,0-4.87,2.19-4.87,5.2v2.92c0,3.01,1.72,5.2,4.94,5.2,2.29,0,3.78-1.13,4.64-2.98l1.89,1.29c-.99,2.29-3.15,3.98-6.56,3.98-4.9,0-7.75-3.54-7.75-8.94Z"/><path class="cls-1" d="M469.78,474.93h6.16v-12.59h-6.16v-2.25h8.81v14.84h5.76v2.25h-14.58v-2.25Zm5.4-20.31v-.53c0-.96,.56-1.69,2.09-1.69s2.09,.73,2.09,1.69v.53c0,.96-.56,1.69-2.09,1.69s-2.09-.73-2.09-1.69Z"/><path class="cls-1" d="M488.33,468.63c0-5.43,2.95-8.94,7.75-8.94s7.75,3.51,7.75,8.94-2.95,8.94-7.75,8.94-7.75-3.51-7.75-8.94Zm12.69,1.23v-2.45c0-3.68-1.99-5.43-4.94-5.43s-4.94,1.76-4.94,5.43v2.45c0,3.68,1.99,5.43,4.94,5.43s4.94-1.75,4.94-5.43Zm-4.7-12.06l-1.72-.79,2.82-5.63,2.42,1.16-3.51,5.27Z"/><path class="cls-1" d="M509.27,477.18v-17.09h2.65v2.78h.13c.73-1.69,2.05-3.18,4.87-3.18,3.58,0,5.93,2.39,5.93,6.53v10.96h-2.65v-10.5c0-3.11-1.42-4.64-4.04-4.64-2.12,0-4.24,1.03-4.24,3.28v11.86h-2.65Z"/><path class="cls-1" d="M550.91,468.5v-2.78h9.61v2.78h-9.61Z"/><path class="cls-1" d="M588.31,477.18v-2.22h5.76v-18.68h-5.76v-2.22h14.31v2.22h-5.76v18.68h5.76v2.22h-14.31Z"/><path class="cls-1" d="M608.65,477.18v-17.09h2.65v2.78h.13c.73-1.69,2.05-3.18,4.87-3.18,3.58,0,5.93,2.39,5.93,6.53v10.96h-2.65v-10.5c0-3.11-1.42-4.64-4.04-4.64-2.12,0-4.24,1.03-4.24,3.28v11.86h-2.65Z"/><path class="cls-1" d="M633.53,477.18l-6.13-17.09h2.68l2.45,7.16,2.65,7.72h.13l2.65-7.72,2.45-7.16h2.62l-6.13,17.09h-3.38Z"/><path class="cls-1" d="M647.38,468.67c0-5.47,3.21-8.98,7.85-8.98s7.59,3.51,7.59,8.35v1.26h-12.66v.79c0,3.01,2.02,5.2,5.23,5.2,2.29,0,4.01-1.13,4.9-2.98l1.95,1.33c-1.03,2.29-3.48,3.94-6.86,3.94-4.9,0-8.02-3.51-8.02-8.91Zm2.78-1.59v.23h9.81v-.36c0-3.01-1.92-5.07-4.74-5.07s-5.07,2.22-5.07,5.2Z"/><path class="cls-1" d="M667.26,474.23l1.79-1.56c1.62,1.72,3.48,2.68,6.2,2.68s4.54-.93,4.54-2.95c0-1.79-1.46-2.25-3.01-2.48l-2.68-.4c-2.42-.36-5.86-1.03-5.86-4.74,0-3.41,2.92-5.1,6.89-5.1,3.08,0,5.33,1.03,6.96,2.75l-1.72,1.62c-.79-.96-2.32-2.15-5.33-2.15-2.68,0-4.17,.96-4.17,2.72s1.49,2.25,3.01,2.48l2.68,.4c2.45,.36,5.86,1.03,5.86,4.74,0,3.38-2.85,5.33-7.22,5.33-3.58,0-6.13-1.33-7.92-3.35Z"/><path class="cls-1" d="M695.68,477.18c-2.58,0-3.78-1.62-3.78-3.91v-10.93h-5.7v-2.25h4.24c1.13,0,1.56-.4,1.56-1.56v-4.47h2.55v6.03h7.78v2.25h-7.78v12.59h7.78v2.25h-6.66Z"/><path class="cls-1" d="M708.31,474.93h6.16v-12.59h-6.16v-2.25h8.81v14.84h5.76v2.25h-14.58v-2.25Zm5.4-20.31v-.53c0-.96,.56-1.69,2.09-1.69s2.09,.73,2.09,1.69v.53c0,.96-.56,1.69-2.09,1.69s-2.09-.73-2.09-1.69Z"/><path class="cls-1" d="M734.65,484.2c-5.5,0-7.75-1.52-7.75-4.24,0-1.82,1.03-2.82,2.78-3.28v-.4c-.96-.46-1.52-1.19-1.52-2.35,0-1.76,1.33-2.55,3.08-2.98v-.13c-2.09-.93-3.35-2.82-3.35-5.23,0-3.48,2.62-5.9,6.62-5.9,1.29,0,2.42,.23,3.38,.7v-.3c0-1.33,.56-2.32,2.05-2.32h3.15v2.32h-3.84v1.16c1.23,1.06,1.92,2.55,1.92,4.34,0,3.48-2.65,5.9-6.66,5.9-.56,0-1.09-.03-1.62-.13-1.03,.2-2.45,.79-2.45,1.95,0,1.03,1.13,1.26,2.75,1.26h3.78c4.41,0,6.29,1.79,6.29,4.57,0,3.45-2.92,5.07-8.61,5.07Zm2.42-7.19h-5.93c-1.13,.46-1.72,1.23-1.72,2.32,0,1.49,1.09,2.75,3.88,2.75h2.58c3.08,0,4.9-.96,4.9-2.82,0-1.36-.96-2.25-3.71-2.25Zm1.33-10.96v-.96c0-2.02-1.23-3.35-3.88-3.35s-3.84,1.33-3.84,3.35v.96c0,2.02,1.23,3.38,3.84,3.38s3.88-1.36,3.88-3.38Z"/><path class="cls-1" d="M760.95,477.18c-2.05,0-2.85-1.19-3.05-2.78h-.17c-.73,1.95-2.35,3.18-5.13,3.18-3.58,0-5.86-1.99-5.86-5.2s2.22-4.97,7.35-4.97h3.64v-1.69c0-2.48-1.49-3.78-4.08-3.78-2.29,0-3.68,.96-4.57,2.52l-1.79-1.33c.86-1.79,3.05-3.45,6.53-3.45,4.01,0,6.56,2.15,6.56,5.76v9.41h2.39v2.32h-1.82Zm-3.21-4.97v-2.82h-3.64c-3.15,0-4.57,.93-4.57,2.58v.7c0,1.75,1.36,2.68,3.54,2.68,2.72,0,4.67-1.39,4.67-3.15Z"/><path class="cls-1" d="M767.21,468.63c0-5.43,2.88-8.94,7.72-8.94,3.31,0,5.37,1.62,6.33,3.94l-2.12,1.13c-.63-1.76-2.09-2.78-4.21-2.78-3.11,0-4.87,2.19-4.87,5.2v2.92c0,3.01,1.72,5.2,4.94,5.2,2.29,0,3.78-1.13,4.64-2.98l1.89,1.29c-.99,2.29-3.15,3.98-6.56,3.98-4.9,0-7.75-3.54-7.75-8.94Z"/><path class="cls-1" d="M787.82,474.93h6.16v-12.59h-6.16v-2.25h8.81v14.84h5.76v2.25h-14.58v-2.25Zm5.4-20.31v-.53c0-.96,.56-1.69,2.09-1.69s2.09,.73,2.09,1.69v.53c0,.96-.56,1.69-2.09,1.69s-2.09-.73-2.09-1.69Z"/><path class="cls-1" d="M806.37,468.63c0-5.43,2.95-8.94,7.75-8.94s7.75,3.51,7.75,8.94-2.95,8.94-7.75,8.94-7.75-3.51-7.75-8.94Zm12.69,1.23v-2.45c0-3.68-1.99-5.43-4.94-5.43s-4.94,1.76-4.94,5.43v2.45c0,3.68,1.99,5.43,4.94,5.43s4.94-1.75,4.94-5.43Zm-4.7-12.06l-1.72-.79,2.82-5.63,2.42,1.16-3.51,5.27Z"/><path class="cls-1" d="M827.31,477.18v-17.09h2.65v2.78h.13c.73-1.69,2.05-3.18,4.87-3.18,3.58,0,5.93,2.39,5.93,6.53v10.96h-2.65v-10.5c0-3.11-1.42-4.64-4.04-4.64-2.12,0-4.24,1.03-4.24,3.28v11.86h-2.65Z"/></g><g class="cls-4"><path class="cls-2" d="M81.94,397.47v-68.55h43.31v10.61h-30.44v17.87h29.36v10.61h-29.36v18.86h30.44v10.61h-43.31Z"/><path class="cls-2" d="M140.07,397.47v-50.67h12.57v8.94h.49c2.26-5.5,6.58-10.12,14.83-10.12,9.92,0,16.79,6.87,16.79,19.15v32.7h-12.57v-30.93c0-7.27-3.24-11-9.53-11-5.11,0-10.02,2.65-10.02,8.05v33.88h-12.57Z"/><path class="cls-2" d="M199.78,397.47v-68.55h44.78v10.61h-31.92v17.87h28.77v10.61h-28.77v29.46h-12.87Z"/><path class="cls-2" d="M257.62,387.55h16.11v-52.83h-16.11v-9.92h28.68v62.75h16.2v9.92h-44.88v-9.92Z"/><path class="cls-2" d="M348.45,388.53h-.49c-2.26,5.5-6.58,10.12-14.83,10.12-9.92,0-16.79-6.88-16.79-19.15v-32.7h12.57v30.93c0,7.27,3.24,11,9.53,11,5.11,0,10.02-2.65,10.02-8.05v-33.88h12.57v50.67h-12.57v-8.94Z"/><path class="cls-2" d="M377.72,407.19h20.92v-50.48h-21.31v-9.92h33.88v56.57c0,8.05-4.52,13.75-14.14,13.75h-19.35v-9.92Zm19.25-74.64v-2.36c0-3.54,2.16-6.38,8.05-6.38s8.05,2.85,8.05,6.38v2.36c0,3.54-2.16,6.38-8.05,6.38s-8.05-2.85-8.05-6.38Z"/><path class="cls-2" d="M432.02,372.13c0-16.3,9.43-26.52,24.75-26.52s24.75,10.21,24.75,26.52-9.43,26.52-24.75,26.52-24.75-10.21-24.75-26.52Zm36.43,3.93v-7.86c0-8.45-4.52-12.96-11.69-12.96s-11.69,4.52-11.69,12.96v7.86c0,8.45,4.52,12.96,11.69,12.96s11.69-4.52,11.69-12.96Z"/></g><path class="cls-3" d="M188.3,263.05c-1,0-2-.3-2.9-.8l-108.4-62.9c-1.8-1-2.8-2.9-2.8-4.9V68.55c0-2,1.1-3.9,2.8-4.9L185.5,.75c1.8-1,3.9-1,5.7,0l55.3,31.7c2.7,1.6,3.7,5,2.1,7.8-1.6,2.7-5,3.7-7.8,2.1l-52.5-30-102.8,59.5v119.3l102.8,59.6,59.9-34.6-24.2-14.5-32.8,19.2c-1.8,1-4,1-5.8,0l-70.7-42.5c-1.7-1-2.8-2.9-2.8-4.9V89.55c0-2,1.1-3.9,2.8-4.9l70.7-41c2.7-1.6,6.2-.7,7.8,2.1,1.6,2.7,.7,6.2-2.1,7.8l-67.9,39.4v77.4l65.1,39.1,24.6-14.4-27.6-16.6c-1.7-1-2.8-2.9-2.8-4.9v-41c0-2,1.1-3.9,2.8-4.9l72.7-42.9c1.8-1,3.9-1.1,5.7,0,1.8,1,2.9,2.9,2.9,4.9v83.9c0,2-1.1,3.9-2.8,4.9l-28.7,16.7,27.1,16.4c1.7,1,2.8,2.9,2.8,4.9s-1.1,3.9-2.8,4.9l-71.2,41c-.8,.4-1.7,.7-2.7,.7Zm5.7-92.8l30.2,18.2,31.2-18.2V99.55l-61.4,36.1v34.6Z"/></g></g></g></svg>