<svg xmlns="http://www.w3.org/2000/svg" viewBox="0 0 876.33 563.06"><defs><style>.cls-1,.cls-3{fill:#fff;}.cls-2{fill:#5757f7;}.cls-3{font-size:33.13px;font-family:IBMPlexMono, IBM Plex Mono;}.cls-4{font-size:98.2px;fill:#111;font-family:IBMPlexMono-SemiBold, IBM Plex Mono;font-weight:600;}</style></defs><g id="Capa_2" data-name="Capa 2"><g id="Capa_1-2" data-name="Capa 1"><rect class="cls-1" width="280" height="363.39"/><rect class="cls-1" x="210" y="153.39" width="140" height="560" transform="translate(713.39 153.39) rotate(90)"/><rect class="cls-2" x="421.33" y="108.06" width="70" height="840" transform="translate(984.39 71.72) rotate(90)"/><text class="cls-3" transform="translate(68.71 540.33)">Laboratorio de Creación - Investigación</text><text class="cls-4" transform="translate(73.79 460.62)">EnFlujo</text><path class="cls-2" d="M141.16,218.58a1.18,1.18,0,0,1-1.15-1.19V209.2a1.1,1.1,0,0,1,1.15-1.1h0a1.09,1.09,0,0,1,1.14,1.1v8.28a1.15,1.15,0,0,1-1.14,1.1Z"/><path class="cls-2" d="M141.16,246.05a1.22,1.22,0,0,1-1.15-1.24v-16.3a1.21,1.21,0,0,1,1.15-1.23h0a1.21,1.21,0,0,1,1.14,1.23v16.3a1.24,1.24,0,0,1-1.14,1.24Z"/><path class="cls-2" d="M141.2,265.27a1.09,1.09,0,0,1-1.14-1.09v-8.29a1.17,1.17,0,0,1,1.14-1.19h0a1.18,1.18,0,0,1,1.15,1.19v8.19a1.17,1.17,0,0,1-1.15,1.19Z"/><path class="cls-2" d="M165,251.63a1.12,1.12,0,0,1-.55-.13l-7.14-4.12a1.14,1.14,0,0,1,1.15-2l7.14,4.12a1.12,1.12,0,0,1,.41,1.55A1.2,1.2,0,0,1,165,251.63Z"/><path class="cls-2" d="M148.12,241.93a1.07,1.07,0,0,1-.55-.14l-14-8.06a1.12,1.12,0,0,1-.41-1.55,1.14,1.14,0,0,1,1.56-.42l14,8.06a1.13,1.13,0,0,1,.41,1.56A1.15,1.15,0,0,1,148.12,241.93Z"/><path class="cls-2" d="M124.49,228.29a1.12,1.12,0,0,1-.55-.14L116.8,224a1.14,1.14,0,0,1,1.15-2l7.14,4.12a1.13,1.13,0,0,1,.41,1.56A1.22,1.22,0,0,1,124.49,228.29Z"/><path class="cls-2" d="M157.82,228.1a1.15,1.15,0,0,1-1-.55,1.12,1.12,0,0,1,.42-1.55l7.14-4.17a1.12,1.12,0,0,1,1.55.41,1.13,1.13,0,0,1-.41,1.56L158.37,228A1.12,1.12,0,0,1,157.82,228.1Z"/><path class="cls-2" d="M134.15,241.88a1.12,1.12,0,0,1-.59-2.1l14-8.15a1.14,1.14,0,1,1,1.14,2l-14,8.14A1,1,0,0,1,134.15,241.88Z"/><path class="cls-2" d="M117.35,251.68a1.15,1.15,0,0,1-1-.55,1.14,1.14,0,0,1,.42-1.56l7.14-4.16a1.14,1.14,0,0,1,1.14,2l-7.14,4.16A1.21,1.21,0,0,1,117.35,251.68Z"/><path class="cls-2" d="M134.24,214.28a1.15,1.15,0,0,1-1-.55,1.13,1.13,0,0,1,.41-1.56l7.51-4.39,7.5,4.35a1.13,1.13,0,1,1-1.14,2l-6.36-3.66-6.32,3.71A1.62,1.62,0,0,1,134.24,214.28Z"/><path class="cls-2" d="M164.87,232.13a1.13,1.13,0,0,1-1.14-1.14v-7.51l-6.32-3.62a1.12,1.12,0,0,1-.41-1.55,1.08,1.08,0,0,1,1.51-.42l7.51,4.26V231A1.14,1.14,0,0,1,164.87,232.13Z"/><path class="cls-2" d="M158,255.62a1.1,1.1,0,0,1-1-.6,1.12,1.12,0,0,1,.36-1.56l6.32-3.66v-7.41a1.15,1.15,0,1,1,2.29,0v8.74l-7.46,4.3A.69.69,0,0,1,158,255.62Z"/><path class="cls-2" d="M141.2,265.55l-7.5-4.3a1.14,1.14,0,1,1,1.14-2l6.36,3.66,6.37-3.66a1.12,1.12,0,0,1,1.55.41,1.13,1.13,0,0,1-.41,1.56Z"/><path class="cls-2" d="M124.26,255.62a1.42,1.42,0,0,1-.59-.14l-7.55-4.3v-8.75a1.14,1.14,0,1,1,2.28,0v7.42l6.41,3.61a1.15,1.15,0,0,1,.46,1.56A1.11,1.11,0,0,1,124.26,255.62Z"/><path class="cls-2" d="M117.26,232.13a1.13,1.13,0,0,1-1.14-1.14v-8.61l7.5-4.39a1.18,1.18,0,0,1,1.61.41,1.16,1.16,0,0,1-.42,1.55l-6.36,3.76V231A1.2,1.2,0,0,1,117.26,232.13Z"/><path class="cls-2" d="M141.16,135.72a1.22,1.22,0,0,1-1.15-1.24v-8.19a1.1,1.1,0,0,1,1.15-1.1h0a1.08,1.08,0,0,1,1.14,1v8.29a1.17,1.17,0,0,1-1.14,1.19Z"/><path class="cls-2" d="M141.16,163.19A1.22,1.22,0,0,1,140,162v-16.3a1.21,1.21,0,0,1,1.15-1.23h0a1.17,1.17,0,0,1,1.14,1.19v16.3a1.25,1.25,0,0,1-1.14,1.28Z"/><path class="cls-2" d="M141.2,182.41a1.09,1.09,0,0,1-1.14-1.09v-8.24a1.17,1.17,0,0,1,1.14-1.19h0a1.18,1.18,0,0,1,1.15,1.19v8.24a1.15,1.15,0,0,1-1.15,1.09Z"/><path class="cls-2" d="M165,168.77a1.12,1.12,0,0,1-.55-.13l-7.14-4.12a1.14,1.14,0,0,1,1.15-2l7.14,4.12a1.12,1.12,0,0,1,.41,1.55A1.33,1.33,0,0,1,165,168.77Z"/><path class="cls-2" d="M148.12,159.07a1.07,1.07,0,0,1-.55-.14l-14-8.1a1.14,1.14,0,0,1,1.15-2l14,8.06a1.12,1.12,0,0,1,.41,1.55A1.18,1.18,0,0,1,148.12,159.07Z"/><path class="cls-2" d="M124.49,145.43a1.12,1.12,0,0,1-.55-.14l-7.14-4.12a1.14,1.14,0,1,1,1.15-2l7.14,4.12a1.13,1.13,0,0,1,.41,1.56A1.33,1.33,0,0,1,124.49,145.43Z"/><path class="cls-2" d="M157.82,145.24a1.15,1.15,0,0,1-1-.55,1.12,1.12,0,0,1,.42-1.55l7.14-4.17a1.12,1.12,0,0,1,1.55.41,1.13,1.13,0,0,1-.41,1.56l-7.14,4.17A2.22,2.22,0,0,1,157.82,145.24Z"/><path class="cls-2" d="M134.15,159a1.13,1.13,0,0,1-.59-2.11l14-8.15a1.14,1.14,0,1,1,1.14,2l-14,8.15A1.1,1.1,0,0,1,134.15,159Z"/><path class="cls-2" d="M117.35,168.77a1.15,1.15,0,0,1-1-.55,1.12,1.12,0,0,1,.42-1.55l7.14-4.17a1.14,1.14,0,0,1,1.14,2l-7.14,4.17A1.2,1.2,0,0,1,117.35,168.77Z"/><path class="cls-2" d="M134.24,131.37a1.13,1.13,0,0,1-1-.55,1.12,1.12,0,0,1,.41-1.55l7.51-4.4,7.5,4.35a1.14,1.14,0,1,1-1.14,2l-6.36-3.66-6.32,3.7A1.44,1.44,0,0,1,134.24,131.37Z"/><path class="cls-2" d="M164.87,149.27a1.13,1.13,0,0,1-1.14-1.14v-7.56L157.41,137a1.15,1.15,0,0,1,1.1-2l7.51,4.26v8.88A1.14,1.14,0,0,1,164.87,149.27Z"/><path class="cls-2" d="M158,172.76a1.1,1.1,0,0,1-1-.6,1.12,1.12,0,0,1,.36-1.56l6.32-3.66v-7.37a1.15,1.15,0,0,1,2.29,0v8.7l-7.46,4.35A1,1,0,0,1,158,172.76Z"/><path class="cls-2" d="M141.2,182.69l-7.5-4.3a1.14,1.14,0,1,1,1.14-2l6.36,3.66,6.37-3.66a1.12,1.12,0,0,1,1.55.41,1.13,1.13,0,0,1-.41,1.56Z"/><path class="cls-2" d="M124.26,172.76a1.42,1.42,0,0,1-.59-.14l-7.55-4.3v-8.75a1.14,1.14,0,0,1,2.28,0V167l6.41,3.61a1.15,1.15,0,0,1,.46,1.56A1.11,1.11,0,0,1,124.26,172.76Z"/><path class="cls-2" d="M117.26,149.27a1.13,1.13,0,0,1-1.14-1.14v-8.66l7.5-4.39a1.19,1.19,0,0,1,1.61.41,1.15,1.15,0,0,1-.46,1.56l-6.37,3.71v7.32A1.14,1.14,0,0,1,117.26,149.27Z"/><path class="cls-2" d="M141.16,52.86A1.18,1.18,0,0,1,140,51.67V43.48a1.1,1.1,0,0,1,1.15-1.1h0a1.09,1.09,0,0,1,1.14,1.1v8.28a1.15,1.15,0,0,1-1.14,1.1Z"/><path class="cls-2" d="M141.16,80.33A1.22,1.22,0,0,1,140,79.09V62.79a1.21,1.21,0,0,1,1.15-1.23h0a1.21,1.21,0,0,1,1.14,1.23v16.3a1.24,1.24,0,0,1-1.14,1.24Z"/><path class="cls-2" d="M141.2,99.56a1.09,1.09,0,0,1-1.14-1.1V90.17A1.17,1.17,0,0,1,141.2,89h0a1.18,1.18,0,0,1,1.15,1.19v8.19a1.18,1.18,0,0,1-1.15,1.2Z"/><path class="cls-2" d="M165,85.91a1.12,1.12,0,0,1-.55-.13l-7.14-4.12a1.14,1.14,0,0,1,1.15-2l7.14,4.12a1.12,1.12,0,0,1,.41,1.55A1.2,1.2,0,0,1,165,85.91Z"/><path class="cls-2" d="M148.12,76.21a1.07,1.07,0,0,1-.55-.14L133.6,68a1.12,1.12,0,0,1-.41-1.55,1.14,1.14,0,0,1,1.56-.42l14,8.06a1.13,1.13,0,0,1,.41,1.56A1.15,1.15,0,0,1,148.12,76.21Z"/><path class="cls-2" d="M124.49,62.57a1.12,1.12,0,0,1-.55-.14l-7.14-4.12a1.14,1.14,0,1,1,1.15-2l7.14,4.12A1.13,1.13,0,0,1,125.5,62,1.22,1.22,0,0,1,124.49,62.57Z"/><path class="cls-2" d="M157.82,62.38a1.15,1.15,0,0,1-1-.55,1.12,1.12,0,0,1,.42-1.55l7.14-4.17a1.12,1.12,0,0,1,1.55.41,1.13,1.13,0,0,1-.41,1.56l-7.14,4.17A1.12,1.12,0,0,1,157.82,62.38Z"/><path class="cls-2" d="M134.15,76.16a1.12,1.12,0,0,1-.59-2.1l14-8.15a1.14,1.14,0,1,1,1.14,2L134.7,76A1,1,0,0,1,134.15,76.16Z"/><path class="cls-2" d="M117.35,86a1.15,1.15,0,0,1-1-.55,1.14,1.14,0,0,1,.42-1.56l7.14-4.16a1.14,1.14,0,0,1,1.14,2l-7.14,4.16A1.21,1.21,0,0,1,117.35,86Z"/><path class="cls-2" d="M134.24,48.56a1.15,1.15,0,0,1-1-.55,1.13,1.13,0,0,1,.41-1.56l7.51-4.39,7.5,4.35a1.13,1.13,0,1,1-1.14,2l-6.36-3.66-6.32,3.71A1.62,1.62,0,0,1,134.24,48.56Z"/><path class="cls-2" d="M164.87,66.41a1.13,1.13,0,0,1-1.14-1.14V57.76l-6.32-3.62a1.12,1.12,0,0,1-.41-1.55,1.08,1.08,0,0,1,1.51-.42L166,56.43v8.84A1.14,1.14,0,0,1,164.87,66.41Z"/><path class="cls-2" d="M158,89.9a1.18,1.18,0,0,1-1-.6,1.12,1.12,0,0,1,.36-1.56l6.32-3.66V76.71a1.15,1.15,0,0,1,2.29,0v8.75l-7.46,4.3A1,1,0,0,1,158,89.9Z"/><path class="cls-2" d="M141.2,99.83l-7.5-4.3a1.14,1.14,0,1,1,1.14-2l6.36,3.66,6.37-3.66a1.12,1.12,0,0,1,1.55.41,1.13,1.13,0,0,1-.41,1.56Z"/><path class="cls-2" d="M124.26,89.9a1.42,1.42,0,0,1-.59-.14l-7.55-4.3V76.71a1.14,1.14,0,0,1,2.28,0v7.42l6.41,3.61a1.15,1.15,0,0,1,.46,1.56A1.11,1.11,0,0,1,124.26,89.9Z"/><path class="cls-2" d="M117.26,66.41a1.13,1.13,0,0,1-1.14-1.14V56.66l7.5-4.39a1.18,1.18,0,0,1,1.61.41,1.16,1.16,0,0,1-.42,1.55L118.4,58v7.32A1.12,1.12,0,0,1,117.26,66.41Z"/><path class="cls-2" d="M69.28,94.06a1.17,1.17,0,0,1-1.14-1.19V84.68a1.09,1.09,0,0,1,1.14-1.1h0a1.1,1.1,0,0,1,1.15,1.1V93a1.15,1.15,0,0,1-1.15,1.1Z"/><path class="cls-2" d="M69.28,121.53a1.22,1.22,0,0,1-1.14-1.24V104a1.21,1.21,0,0,1,1.14-1.24h0A1.21,1.21,0,0,1,70.43,104v16.29a1.24,1.24,0,0,1-1.15,1.24Z"/><path class="cls-2" d="M69.33,140.76a1.09,1.09,0,0,1-1.14-1.1v-8.29a1.17,1.17,0,0,1,1.14-1.19h0a1.17,1.17,0,0,1,1.14,1.19v8.2a1.17,1.17,0,0,1-1.14,1.19Z"/><path class="cls-2" d="M93.09,127.11a1.12,1.12,0,0,1-.55-.13l-7.14-4.12A1.13,1.13,0,0,1,85,121.3a1.12,1.12,0,0,1,1.55-.41L93.68,125a1.13,1.13,0,0,1,.42,1.55A1.2,1.2,0,0,1,93.09,127.11Z"/><path class="cls-2" d="M76.24,117.41a1.12,1.12,0,0,1-.55-.14l-14-8.06a1.12,1.12,0,0,1-.41-1.55,1.13,1.13,0,0,1,1.56-.41l14,8a1.13,1.13,0,0,1,.41,1.56A1.15,1.15,0,0,1,76.24,117.41Z"/><path class="cls-2" d="M52.62,103.77a1.12,1.12,0,0,1-.55-.14l-7.14-4.12A1.13,1.13,0,0,1,44.52,98a1.12,1.12,0,0,1,1.55-.41l7.15,4.12a1.13,1.13,0,0,1,.41,1.56A1.22,1.22,0,0,1,52.62,103.77Z"/><path class="cls-2" d="M86,103.58a1.15,1.15,0,0,1-1-.55,1.12,1.12,0,0,1,.41-1.55l7.14-4.17a1.14,1.14,0,0,1,1.15,2l-7.14,4.17A1.12,1.12,0,0,1,86,103.58Z"/><path class="cls-2" d="M62.28,117.36a1.15,1.15,0,0,1-1-.55,1.13,1.13,0,0,1,.41-1.55l14-8.15a1.12,1.12,0,0,1,1.55.41,1.13,1.13,0,0,1-.41,1.56l-14,8.15A1.12,1.12,0,0,1,62.28,117.36Z"/><path class="cls-2" d="M45.48,127.16a1.15,1.15,0,0,1-1-.55,1.13,1.13,0,0,1,.41-1.56L52,120.89a1.14,1.14,0,0,1,1.14,2L46,127A1.25,1.25,0,0,1,45.48,127.16Z"/><path class="cls-2" d="M62.37,89.76a1.15,1.15,0,0,1-1-.55,1.14,1.14,0,0,1,.42-1.56l7.5-4.39,7.51,4.35a1.14,1.14,0,0,1-1.14,2l-6.37-3.67L63,89.62A1.66,1.66,0,0,1,62.37,89.76Z"/><path class="cls-2" d="M93,107.61a1.14,1.14,0,0,1-1.15-1.14V99l-6.31-3.62a1.12,1.12,0,0,1-.42-1.55,1.08,1.08,0,0,1,1.51-.42l7.51,4.26v8.84A1.13,1.13,0,0,1,93,107.61Z"/><path class="cls-2" d="M86.13,131.1a1.2,1.2,0,0,1-1-.6,1.11,1.11,0,0,1,.37-1.55l6.32-3.67v-7.41a1.15,1.15,0,1,1,2.29,0v8.74l-7.47,4.3A.67.67,0,0,1,86.13,131.1Z"/><path class="cls-2" d="M69.33,141l-7.51-4.3a1.14,1.14,0,1,1,1.15-2l6.36,3.66,6.36-3.66a1.14,1.14,0,0,1,1.15,2Z"/><path class="cls-2" d="M52.39,131.1a1.42,1.42,0,0,1-.59-.14l-7.56-4.26V118a1.15,1.15,0,1,1,2.29,0v7.41L52.94,129a1.15,1.15,0,0,1,.46,1.56A1.17,1.17,0,0,1,52.39,131.1Z"/><path class="cls-2" d="M45.39,107.61a1.14,1.14,0,0,1-1.15-1.14V97.86l7.51-4.39a1.18,1.18,0,0,1,1.6.41,1.17,1.17,0,0,1-.41,1.55l-6.41,3.76v7.32A1.12,1.12,0,0,1,45.39,107.61Z"/><path class="cls-2" d="M212.94,93.88a1.14,1.14,0,0,1-1.15-1.15V84.49a1.15,1.15,0,0,1,2.29,0v8.24A1.14,1.14,0,0,1,212.94,93.88Z"/><path class="cls-2" d="M212.94,120.89a1.14,1.14,0,0,1-1.15-1.15v-16a1.15,1.15,0,0,1,2.29,0v16A1.14,1.14,0,0,1,212.94,120.89Z"/><path class="cls-2" d="M212.94,140.57a1.14,1.14,0,0,1-1.15-1.14v-8.24a1.15,1.15,0,1,1,2.29,0v8.24A1.13,1.13,0,0,1,212.94,140.57Z"/><path class="cls-2" d="M236.65,127.11a1.12,1.12,0,0,1-.55-.13L229,122.86a1.14,1.14,0,0,1,1.15-2l7.14,4.12a1.12,1.12,0,0,1,.41,1.55A1.15,1.15,0,0,1,236.65,127.11Z"/><path class="cls-2" d="M219.85,117.41a1.12,1.12,0,0,1-.55-.14l-14-8.06a1.13,1.13,0,0,1,1.14-2l14,8a1.13,1.13,0,0,1,.41,1.56A1.2,1.2,0,0,1,219.85,117.41Z"/><path class="cls-2" d="M196.18,103.77a1.12,1.12,0,0,1-.55-.14l-7.14-4.12a1.14,1.14,0,0,1,1.15-2l7.14,4.12a1.13,1.13,0,0,1,.41,1.56A1.16,1.16,0,0,1,196.18,103.77Z"/><path class="cls-2" d="M229.56,103.58a1.14,1.14,0,0,1-1-.55,1.12,1.12,0,0,1,.41-1.55l7.14-4.17a1.14,1.14,0,0,1,1.15,2l-7.14,4.17A1.26,1.26,0,0,1,229.56,103.58Z"/><path class="cls-2" d="M205.89,117.36a1.15,1.15,0,0,1-1-.55,1.12,1.12,0,0,1,.41-1.55l14-8.15a1.12,1.12,0,0,1,1.55.41,1.13,1.13,0,0,1-.41,1.56l-14,8.15A1.26,1.26,0,0,1,205.89,117.36Z"/><path class="cls-2" d="M189,127.16a1.15,1.15,0,0,1-1-.55,1.14,1.14,0,0,1,.42-1.56l7.14-4.16a1.14,1.14,0,0,1,1.14,2L189.59,127A1,1,0,0,1,189,127.16Z"/><path class="cls-2" d="M206.12,89.76a1.15,1.15,0,0,1-1-.55,1.13,1.13,0,0,1,.41-1.56L213,83.26l7.51,4.35a1.12,1.12,0,0,1,.41,1.55,1.14,1.14,0,0,1-1.56.42L213,85.91l-6.32,3.71A1.61,1.61,0,0,1,206.12,89.76Z"/><path class="cls-2" d="M236.74,107.61a1.13,1.13,0,0,1-1.14-1.14V99l-6.32-3.62a1.12,1.12,0,0,1-.41-1.55,1.08,1.08,0,0,1,1.51-.42l7.51,4.26v8.84A1.14,1.14,0,0,1,236.74,107.61Z"/><path class="cls-2" d="M229.88,131.1a1.19,1.19,0,0,1-1-.6,1.11,1.11,0,0,1,.37-1.55l6.31-3.67v-7.41a1.15,1.15,0,1,1,2.29,0v8.74l-7.46,4.3A.68.68,0,0,1,229.88,131.1Z"/><path class="cls-2" d="M213.08,141l-7.51-4.3a1.13,1.13,0,0,1-.41-1.56,1.12,1.12,0,0,1,1.55-.41l6.37,3.66,6.36-3.66a1.14,1.14,0,1,1,1.14,2Z"/><path class="cls-2" d="M196.14,131.1a1.46,1.46,0,0,1-.6-.14l-7.55-4.3v-8.75a1.15,1.15,0,0,1,2.29,0v7.42l6.41,3.62a1.13,1.13,0,0,1,.45,1.55A1.09,1.09,0,0,1,196.14,131.1Z"/><path class="cls-2" d="M189.13,107.61a1.13,1.13,0,0,1-1.14-1.14V97.86l7.51-4.39a1.18,1.18,0,0,1,1.6.41,1.17,1.17,0,0,1-.41,1.55l-6.37,3.76v7.32A1.19,1.19,0,0,1,189.13,107.61Z"/><path class="cls-2" d="M69.28,176.92a1.17,1.17,0,0,1-1.14-1.19v-8.19a1.09,1.09,0,0,1,1.14-1.1h0a1.1,1.1,0,0,1,1.15,1.1v8.28a1.15,1.15,0,0,1-1.15,1.1Z"/><path class="cls-2" d="M69.28,204.39a1.22,1.22,0,0,1-1.14-1.24V186.86a1.21,1.21,0,0,1,1.14-1.24h0a1.21,1.21,0,0,1,1.15,1.24v16.29a1.24,1.24,0,0,1-1.15,1.24Z"/><path class="cls-2" d="M69.33,223.62a1.09,1.09,0,0,1-1.14-1.1v-8.29A1.17,1.17,0,0,1,69.33,213h0a1.17,1.17,0,0,1,1.14,1.19v8.2a1.17,1.17,0,0,1-1.14,1.19Z"/><path class="cls-2" d="M93.09,210a1.12,1.12,0,0,1-.55-.13l-7.14-4.12a1.13,1.13,0,0,1-.41-1.56,1.12,1.12,0,0,1,1.55-.41l7.14,4.12a1.13,1.13,0,0,1,.42,1.55A1.2,1.2,0,0,1,93.09,210Z"/><path class="cls-2" d="M76.24,200.27a1.12,1.12,0,0,1-.55-.14l-14-8.06a1.12,1.12,0,0,1-.41-1.55,1.13,1.13,0,0,1,1.56-.41l14,8a1.13,1.13,0,0,1,.41,1.56A1.15,1.15,0,0,1,76.24,200.27Z"/><path class="cls-2" d="M52.62,186.63a1.12,1.12,0,0,1-.55-.14l-7.14-4.12a1.13,1.13,0,0,1-.41-1.56,1.12,1.12,0,0,1,1.55-.41l7.15,4.12a1.13,1.13,0,0,1,.41,1.56A1.22,1.22,0,0,1,52.62,186.63Z"/><path class="cls-2" d="M86,186.44a1.15,1.15,0,0,1-1-.55,1.12,1.12,0,0,1,.41-1.55l7.14-4.17a1.14,1.14,0,1,1,1.15,2l-7.14,4.17A1.12,1.12,0,0,1,86,186.44Z"/><path class="cls-2" d="M62.28,200.22a1.15,1.15,0,0,1-1-.55,1.13,1.13,0,0,1,.41-1.55l14-8.15a1.12,1.12,0,0,1,1.55.41,1.13,1.13,0,0,1-.41,1.56l-14,8.15A1.12,1.12,0,0,1,62.28,200.22Z"/><path class="cls-2" d="M45.48,210a1.15,1.15,0,0,1-1-.55,1.13,1.13,0,0,1,.41-1.56L52,203.75a1.14,1.14,0,0,1,1.14,2L46,209.88A1.25,1.25,0,0,1,45.48,210Z"/><path class="cls-2" d="M62.37,172.62a1.15,1.15,0,0,1-1-.55,1.14,1.14,0,0,1,.42-1.56l7.5-4.39,7.51,4.35a1.14,1.14,0,0,1-1.14,2l-6.37-3.67L63,172.48A1.66,1.66,0,0,1,62.37,172.62Z"/><path class="cls-2" d="M93,190.47a1.14,1.14,0,0,1-1.15-1.14v-7.51l-6.31-3.62a1.12,1.12,0,0,1-.42-1.55,1.08,1.08,0,0,1,1.51-.42l7.51,4.26v8.84A1.13,1.13,0,0,1,93,190.47Z"/><path class="cls-2" d="M86.13,214a1.2,1.2,0,0,1-1-.6,1.11,1.11,0,0,1,.37-1.55l6.32-3.67v-7.41a1.15,1.15,0,1,1,2.29,0v8.74l-7.47,4.3A.67.67,0,0,1,86.13,214Z"/><path class="cls-2" d="M69.33,223.89l-7.51-4.3a1.14,1.14,0,1,1,1.15-2l6.36,3.66,6.36-3.66a1.14,1.14,0,1,1,1.15,2Z"/><path class="cls-2" d="M52.39,214a1.42,1.42,0,0,1-.59-.14l-7.56-4.26v-8.74a1.15,1.15,0,1,1,2.29,0v7.41l6.41,3.62a1.15,1.15,0,0,1,.46,1.56A1.17,1.17,0,0,1,52.39,214Z"/><path class="cls-2" d="M45.39,190.47a1.14,1.14,0,0,1-1.15-1.14v-8.61l7.51-4.39a1.18,1.18,0,0,1,1.6.41,1.17,1.17,0,0,1-.41,1.55l-6.41,3.76v7.32A1.12,1.12,0,0,1,45.39,190.47Z"/><path class="cls-2" d="M69.19,259.6a1.14,1.14,0,0,1-1.14-1.15v-8.24a1.15,1.15,0,0,1,2.29,0v8.24A1.14,1.14,0,0,1,69.19,259.6Z"/><path class="cls-2" d="M69.19,286.61a1.14,1.14,0,0,1-1.14-1.15v-16a1.15,1.15,0,0,1,2.29,0v16A1.14,1.14,0,0,1,69.19,286.61Z"/><path class="cls-2" d="M69.19,306.29a1.13,1.13,0,0,1-1.14-1.14v-8.24a1.15,1.15,0,1,1,2.29,0v8.24A1.14,1.14,0,0,1,69.19,306.29Z"/><path class="cls-2" d="M92.91,292.83a1.07,1.07,0,0,1-.55-.13l-7.14-4.12a1.14,1.14,0,1,1,1.14-2l7.14,4.12a1.12,1.12,0,0,1-.59,2.1Z"/><path class="cls-2" d="M76.11,283.13a1.07,1.07,0,0,1-.55-.14l-14-8.06a1.12,1.12,0,0,1-.41-1.55,1.13,1.13,0,0,1,1.56-.41l14,8a1.13,1.13,0,0,1,.41,1.56A1.19,1.19,0,0,1,76.11,283.13Z"/><path class="cls-2" d="M52.44,269.49a1.1,1.1,0,0,1-.55-.14l-7.14-4.12a1.14,1.14,0,1,1,1.14-2L53,267.38a1.12,1.12,0,0,1,.41,1.56A1.14,1.14,0,0,1,52.44,269.49Z"/><path class="cls-2" d="M85.81,269.3a1.15,1.15,0,0,1-1-.55,1.12,1.12,0,0,1,.42-1.55L92.36,263a1.12,1.12,0,0,1,1.55.41A1.13,1.13,0,0,1,93.5,265l-7.14,4.17A1.23,1.23,0,0,1,85.81,269.3Z"/><path class="cls-2" d="M62.14,283.08a1.12,1.12,0,0,1-.59-2.1l14-8.15a1.14,1.14,0,1,1,1.14,2l-14,8.15A1.2,1.2,0,0,1,62.14,283.08Z"/><path class="cls-2" d="M45.3,292.88a1.13,1.13,0,0,1-.6-2.11l7.14-4.16a1.14,1.14,0,1,1,1.15,2l-7.1,4.16A1.28,1.28,0,0,1,45.3,292.88Z"/><path class="cls-2" d="M62.37,255.48a1.15,1.15,0,0,1-1-.55,1.14,1.14,0,0,1,.42-1.56l7.5-4.39,7.51,4.35a1.14,1.14,0,0,1-1.14,2l-6.37-3.67L63,255.34A1.66,1.66,0,0,1,62.37,255.48Z"/><path class="cls-2" d="M93,273.33a1.14,1.14,0,0,1-1.15-1.14v-7.51l-6.31-3.62a1.12,1.12,0,0,1-.42-1.55,1.08,1.08,0,0,1,1.51-.42l7.51,4.26v8.84A1.13,1.13,0,0,1,93,273.33Z"/><path class="cls-2" d="M86.13,296.82a1.17,1.17,0,0,1-.64-2.15L91.81,291v-7.41a1.15,1.15,0,1,1,2.29,0v8.74l-7.47,4.3A.67.67,0,0,1,86.13,296.82Z"/><path class="cls-2" d="M69.33,306.75l-7.51-4.3a1.14,1.14,0,0,1,1.15-2l6.36,3.66,6.36-3.66a1.14,1.14,0,1,1,1.15,2Z"/><path class="cls-2" d="M52.39,296.82a1.42,1.42,0,0,1-.59-.14l-7.56-4.26v-8.74a1.15,1.15,0,1,1,2.29,0v7.41l6.41,3.62a1.15,1.15,0,0,1,.46,1.56A1.17,1.17,0,0,1,52.39,296.82Z"/><path class="cls-2" d="M45.39,273.33a1.14,1.14,0,0,1-1.15-1.14v-8.61l7.51-4.39a1.18,1.18,0,0,1,1.6.41,1.17,1.17,0,0,1-.41,1.55l-6.41,3.76v7.32A1.12,1.12,0,0,1,45.39,273.33Z"/><path class="cls-2" d="M213,176.92a1.17,1.17,0,0,1-1.14-1.19v-8.19a1.09,1.09,0,0,1,1.14-1.1h0a1.09,1.09,0,0,1,1.14,1.1v8.28a1.15,1.15,0,0,1-1.14,1.1Z"/><path class="cls-2" d="M213,204.39a1.22,1.22,0,0,1-1.14-1.24V186.86a1.21,1.21,0,0,1,1.14-1.24h0a1.21,1.21,0,0,1,1.14,1.24v16.29a1.24,1.24,0,0,1-1.14,1.24Z"/><path class="cls-2" d="M213.08,223.62a1.1,1.1,0,0,1-1.15-1.1v-8.29a1.17,1.17,0,0,1,1.15-1.19h0a1.17,1.17,0,0,1,1.14,1.19v8.2a1.18,1.18,0,0,1-1.14,1.19Z"/><path class="cls-2" d="M236.84,210a1.07,1.07,0,0,1-.55-.13l-7.15-4.12a1.14,1.14,0,0,1,1.15-2l7.14,4.12a1.12,1.12,0,0,1,.41,1.55A1.19,1.19,0,0,1,236.84,210Z"/><path class="cls-2" d="M220,200.27a1.12,1.12,0,0,1-.55-.14l-14-8.06a1.13,1.13,0,1,1,1.14-2l14,8a1.14,1.14,0,0,1,.42,1.56A1.15,1.15,0,0,1,220,200.27Z"/><path class="cls-2" d="M196.37,186.63a1.07,1.07,0,0,1-.55-.14l-7.14-4.12a1.14,1.14,0,1,1,1.14-2l7.14,4.12a1.13,1.13,0,0,1,.41,1.56A1.22,1.22,0,0,1,196.37,186.63Z"/><path class="cls-2" d="M229.69,186.44a1.13,1.13,0,0,1-1-.55,1.12,1.12,0,0,1,.41-1.55l7.14-4.17a1.14,1.14,0,1,1,1.14,2l-7.14,4.17A1.07,1.07,0,0,1,229.69,186.44Z"/><path class="cls-2" d="M206,200.22a1.14,1.14,0,0,1-1-.55,1.12,1.12,0,0,1,.41-1.55l14-8.15a1.14,1.14,0,1,1,1.15,2l-14,8.15A1.12,1.12,0,0,1,206,200.22Z"/><path class="cls-2" d="M189.23,210a1.13,1.13,0,0,1-.6-2.11l7.14-4.16a1.14,1.14,0,0,1,1.15,2l-7.15,4.16A1.21,1.21,0,0,1,189.23,210Z"/><path class="cls-2" d="M206.12,172.62a1.15,1.15,0,0,1-1-.55,1.13,1.13,0,0,1,.41-1.56l7.51-4.39,7.51,4.35A1.12,1.12,0,0,1,221,172a1.14,1.14,0,0,1-1.56.42L213,168.77l-6.32,3.71A1.61,1.61,0,0,1,206.12,172.62Z"/><path class="cls-2" d="M236.74,190.47a1.13,1.13,0,0,1-1.14-1.14v-7.51l-6.32-3.62a1.12,1.12,0,0,1-.41-1.55,1.08,1.08,0,0,1,1.51-.42l7.51,4.26v8.84A1.14,1.14,0,0,1,236.74,190.47Z"/><path class="cls-2" d="M229.88,214a1.19,1.19,0,0,1-1-.6,1.11,1.11,0,0,1,.37-1.55l6.31-3.67v-7.41a1.15,1.15,0,1,1,2.29,0v8.74l-7.46,4.3A.68.68,0,0,1,229.88,214Z"/><path class="cls-2" d="M213.08,223.89l-7.51-4.3a1.13,1.13,0,0,1-.41-1.56,1.12,1.12,0,0,1,1.55-.41l6.37,3.66,6.36-3.66a1.14,1.14,0,1,1,1.14,2Z"/><path class="cls-2" d="M196.14,214a1.46,1.46,0,0,1-.6-.14l-7.55-4.3v-8.75a1.15,1.15,0,0,1,2.29,0v7.42l6.41,3.62a1.13,1.13,0,0,1,.45,1.55A1.09,1.09,0,0,1,196.14,214Z"/><path class="cls-2" d="M189.13,190.47a1.13,1.13,0,0,1-1.14-1.14v-8.61l7.51-4.39a1.18,1.18,0,0,1,1.6.41,1.17,1.17,0,0,1-.41,1.55l-6.37,3.76v7.32A1.19,1.19,0,0,1,189.13,190.47Z"/><path class="cls-2" d="M69.28,85.68a1.17,1.17,0,0,1-1-.59,1.13,1.13,0,0,1,.41-1.56l8.74-4.94a1.14,1.14,0,0,1,1.15,2L69.83,85.5A.84.84,0,0,1,69.28,85.68Z"/><path class="cls-2" d="M86.45,76a1.2,1.2,0,0,1-1-.6,1.12,1.12,0,0,1,.42-1.55L99.59,66a1.14,1.14,0,0,1,1.56.42,1.12,1.12,0,0,1-.42,1.55L87,75.8A.92.92,0,0,1,86.45,76Z"/><path class="cls-2" d="M108.56,63.44a1.17,1.17,0,0,1-1-.6,1.12,1.12,0,0,1,.41-1.56l8.74-4.94a1.14,1.14,0,0,1,1.15,2l-8.75,4.94A.79.79,0,0,1,108.56,63.44Z"/><path class="cls-2" d="M93.09,127.11a1.19,1.19,0,0,1-1-.59,1.13,1.13,0,0,1,.41-1.56l8.75-5a1.14,1.14,0,0,1,1.14,2l-8.74,5A.86.86,0,0,1,93.09,127.11Z"/><path class="cls-2" d="M110.26,117.32a1.19,1.19,0,0,1-1-.6,1.12,1.12,0,0,1,.41-1.55l13.73-7.83a1.14,1.14,0,0,1,1.15,2l-13.73,7.82A.89.89,0,0,1,110.26,117.32Z"/><path class="cls-2" d="M132.46,104.68a1.21,1.21,0,0,1-1-.59,1.13,1.13,0,0,1,.41-1.56l8.75-5a1.12,1.12,0,0,1,1.55.41,1.13,1.13,0,0,1-.41,1.56l-8.74,5A.86.86,0,0,1,132.46,104.68Z"/><path class="cls-2" d="M108.52,90.86a1.19,1.19,0,0,1-1-.6,1.14,1.14,0,0,1,.46-1.55l8.79-4.9a1.14,1.14,0,0,1,1.55.45,1.15,1.15,0,0,1-.45,1.56l-8.79,4.9A1,1,0,0,1,108.52,90.86Z"/><path class="cls-2" d="M93.09,99.46a1.21,1.21,0,0,1-1-.59,1.15,1.15,0,0,1,.46-1.56l8.79-4.9a1.15,1.15,0,1,1,1.1,2l-8.79,4.9A1.23,1.23,0,0,1,93.09,99.46Z"/><path class="cls-2" d="M213,85.68a1.23,1.23,0,0,1-.55-.13l-8.74-5a1.14,1.14,0,1,1,1.14-2l8.75,5a1.13,1.13,0,0,1,.41,1.55A1.2,1.2,0,0,1,213,85.68Z"/><path class="cls-2" d="M195.86,75.89a1.28,1.28,0,0,1-.55-.14l-13.73-7.83a1.14,1.14,0,0,1,1.14-2l13.74,7.83a1.13,1.13,0,0,1,.41,1.56A1.22,1.22,0,0,1,195.86,75.89Z"/><path class="cls-2" d="M173.71,63.25a1.1,1.1,0,0,1-.55-.14l-8.75-5a1.14,1.14,0,0,1,1.15-2l8.7,4.94a1.16,1.16,0,0,1-.55,2.15Z"/><path class="cls-2" d="M189.23,127.34a1.07,1.07,0,0,1-.55-.13l-8.75-5a1.14,1.14,0,0,1,1.15-2l8.74,5a1.12,1.12,0,0,1,.41,1.55A1.19,1.19,0,0,1,189.23,127.34Z"/><path class="cls-2" d="M172.06,117.45a1.09,1.09,0,0,1-.55-.13l-13.74-7.92a1.14,1.14,0,0,1,1.15-2l13.73,7.92a1.14,1.14,0,0,1,.42,1.56A1.16,1.16,0,0,1,172.06,117.45Z"/><path class="cls-2" d="M149.9,104.68a1,1,0,0,1-.55-.14l-8.74-5A1.13,1.13,0,0,1,140.2,98a1.12,1.12,0,0,1,1.55-.41l8.75,5a1.12,1.12,0,0,1,.41,1.55A1.15,1.15,0,0,1,149.9,104.68Z"/><path class="cls-2" d="M189.23,99.65a1.21,1.21,0,0,1-.55-.14l-8.79-4.94a1.14,1.14,0,1,1,1.14-2l8.79,4.94a1.13,1.13,0,0,1,.41,1.56A1.22,1.22,0,0,1,189.23,99.65Z"/><path class="cls-2" d="M173.89,91a1.23,1.23,0,0,1-.55-.13l-8.79-5a1.14,1.14,0,0,1,1.14-2l8.79,5a1.14,1.14,0,0,1,.42,1.56A1.32,1.32,0,0,1,173.89,91Z"/><path class="cls-2" d="M213,168.54a1.23,1.23,0,0,1-.55-.13l-8.74-5a1.14,1.14,0,1,1,1.14-2l8.75,5A1.13,1.13,0,0,1,214,168,1.2,1.2,0,0,1,213,168.54Z"/><path class="cls-2" d="M195.86,158.75a1.28,1.28,0,0,1-.55-.14l-13.73-7.87a1.14,1.14,0,0,1,1.14-2l13.74,7.87a1.13,1.13,0,0,1,.41,1.56A1.22,1.22,0,0,1,195.86,158.75Z"/><path class="cls-2" d="M173.71,146.07a1.21,1.21,0,0,1-.55-.14l-8.75-5a1.14,1.14,0,0,1,1.15-2l8.7,5a1.14,1.14,0,0,1,.41,1.56A1.1,1.1,0,0,1,173.71,146.07Z"/><path class="cls-2" d="M189.23,210a1.21,1.21,0,0,1-.55-.14l-8.79-5a1.14,1.14,0,1,1,1.14-2l8.74,5a1.16,1.16,0,0,1-.54,2.15Z"/><path class="cls-2" d="M172.06,200.18a1.21,1.21,0,0,1-.55-.14l-13.74-7.87a1.14,1.14,0,1,1,1.15-2l13.73,7.87a1.14,1.14,0,0,1,.42,1.56A1.17,1.17,0,0,1,172.06,200.18Z"/><path class="cls-2" d="M150,187.5a1.21,1.21,0,0,1-.55-.14l-8.75-5a1.14,1.14,0,0,1,1.15-2l8.74,5A1.13,1.13,0,0,1,151,187,1.22,1.22,0,0,1,150,187.5Z"/><path class="cls-2" d="M189.23,182.51a1.21,1.21,0,0,1-.55-.14l-8.79-5a1.14,1.14,0,1,1,1.14-2l8.74,5a1.14,1.14,0,0,1,.42,1.56A1.1,1.1,0,0,1,189.23,182.51Z"/><path class="cls-2" d="M173.71,173.72a1.21,1.21,0,0,1-.55-.14l-8.75-5a1.14,1.14,0,0,1,1.15-2l8.74,5a1.13,1.13,0,0,1,.41,1.56A1.15,1.15,0,0,1,173.71,173.72Z"/><path class="cls-2" d="M69.28,168.54a1.17,1.17,0,0,1-1-.59,1.13,1.13,0,0,1,.41-1.56l8.74-5a1.14,1.14,0,1,1,1.15,2l-8.75,5A.84.84,0,0,1,69.28,168.54Z"/><path class="cls-2" d="M86.45,158.84a1.2,1.2,0,0,1-1-.6,1.12,1.12,0,0,1,.42-1.55l13.73-7.79a1.14,1.14,0,0,1,1.56.42,1.12,1.12,0,0,1-.42,1.55L87,158.66A.92.92,0,0,1,86.45,158.84Z"/><path class="cls-2" d="M108.56,146.25a1.17,1.17,0,0,1-1-.6,1.11,1.11,0,0,1,.41-1.55l8.74-5a1.14,1.14,0,0,1,1.15,2l-8.75,5A.76.76,0,0,1,108.56,146.25Z"/><path class="cls-2" d="M93.09,210a1.19,1.19,0,0,1-1-.59,1.13,1.13,0,0,1,.41-1.56l8.75-5a1.14,1.14,0,0,1,1.14,2l-8.74,5A.86.86,0,0,1,93.09,210Z"/><path class="cls-2" d="M110.26,200.18a1.19,1.19,0,0,1-1-.6,1.12,1.12,0,0,1,.41-1.55l13.73-7.88a1.14,1.14,0,1,1,1.15,2L110.81,200A.89.89,0,0,1,110.26,200.18Z"/><path class="cls-2" d="M132.46,187.5a1.2,1.2,0,0,1-1-.6,1.13,1.13,0,0,1,.41-1.56l8.75-5a1.14,1.14,0,0,1,1.14,2l-8.74,5A.87.87,0,0,1,132.46,187.5Z"/><path class="cls-2" d="M93.09,182.32a1.21,1.21,0,0,1-1-.59,1.15,1.15,0,0,1,.46-1.56l8.79-4.9a1.15,1.15,0,0,1,1.1,2l-8.79,4.9A1.23,1.23,0,0,1,93.09,182.32Z"/><path class="cls-2" d="M108.56,173.67a1.18,1.18,0,0,1-1-.59,1.14,1.14,0,0,1,.45-1.56l8.79-4.9a1.15,1.15,0,1,1,1.1,2l-8.79,4.89A1.1,1.1,0,0,1,108.56,173.67Z"/><path class="cls-2" d="M69.74,251.4a1.19,1.19,0,0,1-1-.59,1.14,1.14,0,0,1,.42-1.56l8.74-5a1.14,1.14,0,1,1,1.15,2l-8.75,5A.84.84,0,0,1,69.74,251.4Z"/><path class="cls-2" d="M86.77,241.65a1.21,1.21,0,0,1-1-.59,1.14,1.14,0,0,1,.42-1.56l13.5-7.74a1.14,1.14,0,0,1,1.56.42,1.12,1.12,0,0,1-.41,1.55l-13.51,7.74A.86.86,0,0,1,86.77,241.65Z"/><path class="cls-2" d="M108.61,229.2a1.21,1.21,0,0,1-1-.59,1.13,1.13,0,0,1,.41-1.56l8.75-5a1.12,1.12,0,0,1,1.55.41,1.13,1.13,0,0,1-.41,1.56l-8.74,5A1.37,1.37,0,0,1,108.61,229.2Z"/><path class="cls-2" d="M93.46,292.83a1.1,1.1,0,0,1-1-.59,1.13,1.13,0,0,1,.41-1.56l8.74-5a1.14,1.14,0,1,1,1.15,2l-8.75,5A.7.7,0,0,1,93.46,292.83Z"/><path class="cls-2" d="M110.53,283a1.16,1.16,0,0,1-.59-2.15l13.59-7.83a1.14,1.14,0,1,1,1.15,2l-13.6,7.82A.8.8,0,0,1,110.53,283Z"/><path class="cls-2" d="M132.46,270.4a1.11,1.11,0,0,1-1-.59,1.13,1.13,0,0,1,.41-1.56l8.75-5a1.14,1.14,0,0,1,1.14,2l-8.74,5A.86.86,0,0,1,132.46,270.4Z"/><path class="cls-2" d="M93.55,265.14a1.19,1.19,0,0,1-1-.6A1.12,1.12,0,0,1,93,263L101.7,258a1.14,1.14,0,0,1,1.14,2L94.1,265A.89.89,0,0,1,93.55,265.14Z"/><path class="cls-2" d="M108.56,256.62a1.18,1.18,0,0,1-1-.59,1.12,1.12,0,0,1,.41-1.56l8.74-4.94a1.14,1.14,0,1,1,1.15,2l-8.75,4.94A.78.78,0,0,1,108.56,256.62Z"/><path class="cls-2" d="M141.16,109.63h0a1.1,1.1,0,0,1-1.15-1.1V98.41a1.18,1.18,0,0,1,1.15-1.19h0a1.2,1.2,0,0,1,1.14,1.19v10A1.15,1.15,0,0,1,141.16,109.63Z"/><path class="cls-2" d="M141.16,127.48h0a1.22,1.22,0,0,1-1.15-1.24v-10a1.1,1.1,0,0,1,1.15-1.1h0a1.08,1.08,0,0,1,1.14,1v10.12A1.2,1.2,0,0,1,141.16,127.48Z"/><path class="cls-2" d="M117.26,141.49a1.13,1.13,0,0,1-1.14-1.15V130.27a1.14,1.14,0,1,1,2.28,0v10.07A1.13,1.13,0,0,1,117.26,141.49Z"/><path class="cls-2" d="M117.26,121.35a1.14,1.14,0,0,1-1.14-1.15v-16a1.14,1.14,0,1,1,2.28,0v16A1.14,1.14,0,0,1,117.26,121.35Z"/><path class="cls-2" d="M117.26,96.17A1.14,1.14,0,0,1,116.12,95V85a1.14,1.14,0,0,1,2.28,0V95A1.14,1.14,0,0,1,117.26,96.17Z"/><path class="cls-2" d="M164.87,141a1.13,1.13,0,0,1-1.14-1.14V129.81a1.15,1.15,0,0,1,2.29,0v10.08A1.14,1.14,0,0,1,164.87,141Z"/><path class="cls-2" d="M164.87,121.35a1.14,1.14,0,0,1-1.14-1.15V104.64a1.15,1.15,0,1,1,2.29,0V120.2A1.14,1.14,0,0,1,164.87,121.35Z"/><path class="cls-2" d="M164.87,96.17A1.14,1.14,0,0,1,163.73,95V85A1.15,1.15,0,0,1,166,85V95A1.14,1.14,0,0,1,164.87,96.17Z"/><path class="cls-2" d="M141.16,192.49h0a1.1,1.1,0,0,1-1.15-1.1V181.32a1.14,1.14,0,0,1,1.15-1.15h0a1.17,1.17,0,0,1,1.14,1.19v10.07A1.12,1.12,0,0,1,141.16,192.49Z"/><path class="cls-2" d="M141.16,210.34h0a1.18,1.18,0,0,1-1.15-1.19v-10a1.09,1.09,0,0,1,1.15-1.09h0a1.09,1.09,0,0,1,1.14,1.09v10.12A1.19,1.19,0,0,1,141.16,210.34Z"/><path class="cls-2" d="M117.26,224.35a1.14,1.14,0,0,1-1.14-1.15V213.13a1.14,1.14,0,0,1,2.28,0V223.2A1.14,1.14,0,0,1,117.26,224.35Z"/><path class="cls-2" d="M117.26,204.21a1.14,1.14,0,0,1-1.14-1.15V187a1.14,1.14,0,1,1,2.28,0v16A1.14,1.14,0,0,1,117.26,204.21Z"/><path class="cls-2" d="M117.26,179a1.14,1.14,0,0,1-1.14-1.15V167.81a1.14,1.14,0,1,1,2.28,0v10.07A1.14,1.14,0,0,1,117.26,179Z"/><path class="cls-2" d="M164.87,223.89a1.13,1.13,0,0,1-1.14-1.14v-7.33a1.15,1.15,0,0,1,2.29,0v7.33A1.14,1.14,0,0,1,164.87,223.89Zm0-19.68a1.14,1.14,0,0,1-1.14-1.15v-7.32a1.15,1.15,0,1,1,2.29,0v7.32A1.14,1.14,0,0,1,164.87,204.21Zm0-19.69a1.13,1.13,0,0,1-1.14-1.14v-7.33a1.15,1.15,0,0,1,2.29,0v7.33A1.14,1.14,0,0,1,164.87,184.52Z"/></g></g></svg>